<?xml version="1.0" standalone="no"?>
<!DOCTYPE svg PUBLIC "-//W3C//DTD SVG 20010904//EN"
 "http://www.w3.org/TR/2001/REC-SVG-20010904/DTD/svg10.dtd">
<svg version="1.0" xmlns="http://www.w3.org/2000/svg"
 width="260.000000pt" height="260.000000pt" viewBox="0 0 260.000000 260.000000"
 preserveAspectRatio="xMidYMid meet">
<metadata>
Created by potrace 1.11, written by Peter Selinger 2001-2013
</metadata>
<g transform="translate(0.000000,260.000000) scale(0.100000,-0.100000)"
fill="#000000" stroke="none">
<path d="M1150 2454 c-14 -3 -59 -14 -100 -25 -314 -84 -490 -360 -490 -769
l0 -105 -151 -374 c-113 -281 -149 -380 -144 -399 3 -14 36 -55 73 -92 95 -94
213 -152 374 -185 21 -4 35 -20 60 -68 46 -86 155 -194 240 -235 223 -109 546
-69 712 88 51 48 116 151 116 183 0 22 9 26 103 48 174 42 333 148 381 256
l19 43 -149 367 -149 368 -7 150 c-11 257 -71 418 -208 556 -136 136 -273 189
-510 194 -80 2 -156 1 -170 -1z m102 -791 c23 -25 14 -31 -14 -9 -17 12 -18
41 -16 392 l3 379 2 -369 c3 -364 4 -370 25 -393z m121 385 c7 -364 7 -373
-13 -392 l-20 -20 -1 209 c-1 412 -8 549 -26 563 -15 10 -12 12 18 12 l36 0 6
-372z m238 251 c107 -68 187 -250 205 -465 l7 -87 -24 7 c-13 4 -67 10 -119
13 l-95 6 -1 151 c0 163 -15 239 -69 361 l-25 57 38 -7 c20 -3 58 -20 83 -36z
m277 -180 c69 -122 122 -351 109 -477 -5 -51 1 -69 154 -437 87 -211 159 -388
159 -394 0 -26 -28 -8 -42 26 -84 204 -224 535 -238 563 -30 60 -80 210 -69
210 6 0 6 7 -1 19 -5 11 -10 49 -10 84 0 188 -72 399 -187 547 -27 35 -20 30
29 -21 36 -36 79 -90 96 -120z m-812 89 c-37 -184 -46 -308 -25 -367 7 -21 26
-40 55 -57 41 -24 53 -42 38 -57 -4 -3 -15 -2 -25 4 -27 14 -109 28 -181 31
l-64 2 31 46 c23 35 34 66 44 130 17 113 56 232 87 270 34 40 48 39 40 -2z
m-363 -118 c-3 -12 -8 -19 -11 -16 -5 6 5 36 12 36 2 0 2 -9 -1 -20z m-13 -34
c0 -3 -4 -8 -10 -11 -5 -3 -10 -1 -10 4 0 6 5 11 10 11 6 0 10 -2 10 -4z m348
-348 c52 -13 56 -20 43 -61 l-11 -32 -122 0 c-87 -1 -135 -6 -166 -17 l-43
-16 21 32 c12 17 28 46 37 63 13 25 25 34 52 39 20 3 41 7 46 9 14 5 93 -4
143 -17z m743 6 c41 -15 49 -23 78 -81 17 -35 31 -65 31 -67 0 -3 -20 6 -44
19 -49 26 -135 45 -203 45 -37 0 -44 4 -58 30 -30 59 -21 66 90 69 34 0 80 -6
106 -15z m-670 -94 l-10 -25 0 27 c-1 14 2 35 6 45 7 17 8 17 11 -2 1 -12 -2
-32 -7 -45z m793 -30 c5 -20 3 -19 -8 5 -7 17 -16 41 -20 55 -5 20 -3 19 8 -5
7 -16 16 -41 20 -55z m-647 24 c28 -21 33 -31 33 -65 l0 -39 -40 26 c-35 23
-40 31 -40 65 0 22 3 39 7 39 3 0 21 -11 40 -26z m-616 -21 c-5 -10 -27 -63
-48 -118 -20 -55 -45 -115 -55 -133 -10 -18 -18 -37 -18 -42 0 -5 -14 -40 -32
-77 -17 -38 -32 -70 -33 -73 -5 -14 -21 -52 -47 -109 -16 -35 -30 -72 -31 -83
-1 -10 -5 -18 -10 -18 -4 0 -5 -4 -2 -10 3 -5 1 -10 -4 -10 -6 0 -11 -5 -11
-10 0 -6 -9 -29 -19 -51 -11 -21 -14 -36 -9 -32 7 3 8 1 4 -5 -10 -16 -39 -15
-33 1 24 58 140 334 161 381 14 32 26 63 26 67 0 5 27 66 60 135 33 69 58 130
54 135 -3 5 0 9 6 9 6 0 8 5 4 12 -4 7 -3 8 4 4 7 -4 12 -1 12 6 0 8 5 19 12
26 17 17 20 15 9 -5z m1117 3 c103 -28 171 -85 235 -196 14 -25 62 -133 105
-240 44 -107 96 -232 116 -277 40 -89 43 -103 22 -103 -14 0 -63 109 -167 375
-97 245 -165 332 -300 385 -94 37 -197 29 -372 -31 -49 -17 -91 -28 -94 -25
-3 2 14 18 37 35 107 77 290 111 418 77z m-648 -26 c78 -26 180 -77 180 -89 0
-5 -27 1 -61 14 -184 72 -335 83 -440 31 -116 -57 -178 -143 -268 -373 -106
-268 -153 -373 -167 -373 -8 0 -14 6 -14 13 0 17 210 501 251 577 86 162 208
235 374 226 44 -3 109 -15 145 -26z m-207 -102 c-31 -35 -43 -63 -43 -105 -1
-36 -1 -37 -16 -18 -22 29 -10 75 31 113 40 37 59 43 28 10z m92 5 c-4 -10 -9
-54 -10 -98 -3 -83 -8 -91 -50 -81 -54 14 -56 83 -5 155 19 26 38 41 51 41 16
0 19 -4 14 -17z m720 -8 c20 -19 25 -34 25 -73 0 -57 -16 -77 -71 -87 l-37 -7
5 44 c2 23 -2 67 -10 96 l-14 52 39 0 c28 0 46 -7 63 -25z m-230 -5 c-10 -11
-26 -44 -36 -72 l-18 -53 -1 42 c0 30 7 50 26 72 14 17 31 31 36 31 6 0 3 -9
-7 -20z m-119 -85 c-1 -46 -4 -76 -8 -67 -13 32 -8 152 6 152 2 0 2 -38 2 -85z
m-602 -74 c-1 -1 -7 0 -13 4 -12 7 -15 118 -3 129 6 7 23 -125 16 -133z m1085
64 c1 -45 -11 -71 -27 -61 -8 5 -8 15 -2 32 6 14 10 44 11 67 0 33 2 38 9 22
5 -11 9 -38 9 -60z m-509 55 c0 -5 -5 -10 -11 -10 -5 0 -7 5 -4 10 3 6 8 10
11 10 2 0 4 -4 4 -10z m-190 -87 c-10 -16 -11 -15 -6 7 3 14 6 32 7 40 1 8 4
5 6 -7 2 -12 -1 -30 -7 -40z m190 -13 c0 -5 -15 -9 -32 -9 l-33 1 30 8 c17 4
31 8 33 9 1 0 2 -3 2 -9z m-26 -26 c11 -4 16 -18 15 -43 -1 -35 -2 -35 -8 -6
-3 17 -16 35 -31 42 -26 13 -7 19 24 7z m477 -44 c-51 -44 -112 -60 -210 -58
l-86 1 90 7 c97 7 151 28 194 74 18 19 28 23 35 15 8 -8 1 -19 -23 -39z m-991
25 c22 -27 82 -58 134 -71 37 -9 43 -13 23 -13 -56 -2 -117 21 -160 60 -28 25
-36 38 -26 39 9 0 22 -7 29 -15z m560 -68 c0 -23 -4 -36 -10 -32 -5 3 -10 27
-10 53 0 34 3 43 10 32 5 -8 10 -32 10 -53z m458 -13 c-24 -58 -35 -74 -47
-69 -43 17 -180 27 -259 19 -116 -11 -116 -11 -120 6 -2 13 19 15 154 12 206
-5 214 -3 255 58 19 27 37 50 41 50 4 0 -7 -34 -24 -76z m-1004 -36 c6 -4 31
-8 55 -8 58 0 50 -6 -20 -14 l-56 -7 -21 56 c-29 74 -28 80 5 25 15 -25 31
-48 37 -52z m376 -9 c0 -18 -4 -20 -22 -14 -13 4 -75 10 -138 13 l-115 7 130
5 c72 3 133 7 138 8 4 1 7 -8 7 -19z m166 -3 c24 -20 28 -32 32 -92 4 -67 7
-73 98 -215 52 -81 94 -156 94 -168 0 -21 -1 -21 -285 -21 -202 0 -285 3 -285
11 0 6 42 79 94 163 81 130 95 159 101 208 4 34 14 67 26 80 l19 23 -10 -28
c-5 -16 -10 -49 -10 -74 0 -39 -12 -66 -90 -197 -49 -84 -90 -156 -90 -159 0
-4 113 -7 250 -7 162 0 250 4 250 10 0 11 -163 274 -186 301 -8 8 -14 35 -14
58 0 37 -5 48 -35 75 -27 25 -32 35 -23 44 18 18 34 15 64 -12z m404 -232
c-86 -180 -120 -239 -120 -209 0 12 213 425 217 422 2 -2 -42 -98 -97 -213z
m-442 173 c17 -20 27 -97 13 -97 -6 0 -11 17 -11 39 0 43 -23 72 -42 53 -6 -6
-15 -31 -19 -54 l-6 -43 -2 38 c0 21 4 47 9 58 12 22 42 25 58 6z m411 -106
c-23 -50 -46 -91 -52 -91 -5 0 -40 20 -77 45 -37 24 -91 56 -121 70 -30 13
-46 25 -35 25 10 0 61 -20 114 -45 52 -25 100 -45 106 -45 7 0 32 31 57 69 24
37 45 67 47 65 2 -1 -15 -43 -39 -93z m-804 -41 c7 0 55 20 106 45 51 25 102
45 113 45 12 0 -6 -13 -41 -29 -34 -17 -89 -48 -122 -70 -33 -23 -64 -41 -68
-41 -8 0 -93 162 -93 178 0 4 20 -24 45 -61 25 -37 52 -67 60 -67z m379 114
c12 -32 6 -54 -14 -54 -21 0 -24 10 -14 48 7 26 19 29 28 6z m-403 -248 c28
-54 48 -101 45 -104 -3 -3 -8 -3 -10 -1 -7 7 -146 300 -146 308 0 9 53 -87
111 -203z m359 19 c0 -83 -4 -135 -10 -135 -6 0 -10 52 -10 135 0 83 4 135 10
135 6 0 10 -52 10 -135z m90 -6 c0 -79 -4 -129 -10 -129 -6 0 -10 52 -10 136
0 87 4 133 10 129 6 -4 10 -60 10 -136z m-180 -55 c0 -56 -3 -75 -12 -72 -17
6 -22 84 -7 119 6 16 13 29 15 29 2 0 4 -34 4 -76z m288 -28 c-2 -22 -9 -41
-15 -44 -10 -3 -13 13 -13 60 1 58 2 62 16 43 9 -12 14 -36 12 -59z m282 4
c-35 -39 -65 -68 -68 -65 -5 5 117 135 126 135 2 0 -24 -32 -58 -70z m-825
-68 c-7 -7 -23 7 -56 51 l-33 42 47 -44 c26 -25 45 -47 42 -49z m69 -1 c9 -13
-4 -41 -18 -41 -18 0 -35 21 -29 36 6 16 39 19 47 5z m664 -14 c4 -20 -25 -34
-40 -19 -15 15 -1 44 19 40 10 -2 19 -11 21 -21z m-427 -94 c13 -16 12 -17 -3
-4 -10 7 -18 15 -18 17 0 8 8 3 21 -13z m44 -33 c10 -11 16 -20 13 -20 -3 0
-13 9 -23 20 -10 11 -16 20 -13 20 3 0 13 -9 23 -20z m85 16 c0 -2 -8 -10 -17
-17 -16 -13 -17 -12 -4 4 13 16 21 21 21 13z"/>
</g>
</svg>
